<svg width="42" height="35" viewBox="0 0 42 35" fill="none" xmlns="http://www.w3.org/2000/svg">
<path d="M21 0C11.4545 0 3.30273 6.04722 0 14.5833C3.30273 23.1194 11.4545 29.1667 21 29.1667C21.6873 29.1667 22.3745 29.1667 23.0618 29.0694C22.9636 28.4587 22.9125 27.8411 22.9091 27.2222C22.9091 26.1333 23.0618 25.0444 23.3673 23.9944C22.5845 24.1889 21.8018 24.3056 21 24.3056C18.4684 24.3056 16.0405 23.2813 14.2503 21.458C12.4602 19.6347 11.4545 17.1618 11.4545 14.5833C11.4545 12.0048 12.4602 9.53195 14.2503 7.70868C16.0405 5.88541 18.4684 4.86111 21 4.86111C23.5316 4.86111 25.9595 5.88541 27.7497 7.70868C29.5398 9.53195 30.5455 12.0048 30.5455 14.5833C30.5455 15.1472 30.4882 15.7306 30.3927 16.2944C31.6527 15.8083 33.0082 15.5556 34.3636 15.5556C36.5973 15.5556 38.7736 16.2167 40.6445 17.5C41.16 16.5278 41.6182 15.5556 42 14.5833C38.6973 6.04722 30.5455 0 21 0ZM21 8.75C19.481 8.75 18.0243 9.36458 16.9502 10.4585C15.8761 11.5525 15.2727 13.0362 15.2727 14.5833C15.2727 16.1304 15.8761 17.6142 16.9502 18.7081C18.0243 19.8021 19.481 20.4167 21 20.4167C22.519 20.4167 23.9757 19.8021 25.0498 18.7081C26.1239 17.6142 26.7273 16.1304 26.7273 14.5833C26.7273 13.0362 26.1239 11.5525 25.0498 10.4585C23.9757 9.36458 22.519 8.75 21 8.75ZM32.4545 19.4444V25.2778H26.7273V29.1667H32.4545V35H36.2727V29.1667H42V25.2778H36.2727V19.4444H32.4545Z" fill="white"/>
</svg>
